HIERARCHY
ROOT Hips
{
	OFFSET 0.00000 0.00000 0.00000
	CHANNELS 6 Xposition Yposition Zposition Zrotation Yrotation Xrotation 
	JOINT LHipJoint
	{
		OFFSET 0 0 0
		CHANNELS 3 Zrotation Yrotation Xrotation
		JOINT LeftUpLeg
		{
			OFFSET 1.62329 -1.80800 0.67318
			CHANNELS 3 Zrotation Yrotation Xrotation
			JOINT LeftLeg
			{
				OFFSET 2.57139 -7.06484 0.00000
				CHANNELS 3 Zrotation Yrotation Xrotation
				JOINT LeftFoot
				{
					OFFSET 2.52017 -6.92413 0.00000
					CHANNELS 3 Zrotation Yrotation Xrotation
					JOINT LeftToeBase
					{
						OFFSET 0.23295 -0.64001 2.10214
						CHANNELS 3 Zrotation Yrotation Xrotation
						End Site
						{
							OFFSET 0.00000 -0.00000 1.10139
						}
					}
				}
			}
		}
	}
	JOINT RHipJoint
	{
		OFFSET 0 0 0
		CHANNELS 3 Zrotation Yrotation Xrotation
		JOINT RightUpLeg
		{
			OFFSET -1.48061 -1.80800 0.67318
			CHANNELS 3 Zrotation Yrotation Xrotation
			JOINT RightLeg
			{
				OFFSET -2.63258 -7.23296 0.00000
				CHANNELS 3 Zrotation Yrotation Xrotation
				JOINT RightFoot
				{
					OFFSET -2.54779 -7.00000 0.00000
					CHANNELS 3 Zrotation Yrotation Xrotation
					JOINT RightToeBase
					{
						OFFSET -0.23067 -0.63376 2.12161
						CHANNELS 3 Zrotation Yrotation Xrotation
						End Site
						{
							OFFSET -0.00000 -0.00000 1.11000
						}
					}
				}
			}
		}
	}
	JOINT LowerBack
	{
		OFFSET 0 0 0
		CHANNELS 3 Zrotation Yrotation Xrotation
		JOINT Spine
		{
			OFFSET -0.02108 2.07573 -0.16981
			CHANNELS 3 Zrotation Yrotation Xrotation
			JOINT Spine1
			{
				OFFSET 0.05070 2.08439 -0.03141
				CHANNELS 3 Zrotation Yrotation Xrotation
				JOINT Neck
				{
					OFFSET 0 0 0
					CHANNELS 3 Zrotation Yrotation Xrotation
					JOINT Neck1
					{
						OFFSET -0.10731 1.60408 0.31370
						CHANNELS 3 Zrotation Yrotation Xrotation
						JOINT Head
						{
							OFFSET 0.08411 1.65679 -0.30822
							CHANNELS 3 Zrotation Yrotation Xrotation
							End Site
							{
								OFFSET 0.03911 1.69149 -0.14146
							}
						}
					}
				}
				JOINT LeftShoulder
				{
					OFFSET 0 0 0
					CHANNELS 3 Zrotation Yrotation Xrotation
					JOINT LeftArm
					{
						OFFSET 3.52315 0.73219 -0.54694
						CHANNELS 3 Zrotation Yrotation Xrotation
						JOINT LeftForeArm
						{
							OFFSET 5.32462 -0.00000 -0.00000
							CHANNELS 3 Zrotation Yrotation Xrotation
							JOINT LeftHand
							{
								OFFSET 3.48402 -0.00000 -0.00000
								CHANNELS 3 Zrotation Yrotation Xrotation
								JOINT LeftFingerBase
								{
									OFFSET 0 0 0
									CHANNELS 3 Zrotation Yrotation Xrotation
									JOINT LeftHandIndex1
									{
										OFFSET 0.57248 -0.00000 -0.00000
										CHANNELS 3 Zrotation Yrotation Xrotation
										End Site
										{
											OFFSET 0.46154 -0.00000 -0.00000
										}
									}
								}
								JOINT LThumb
								{
									OFFSET 0 0 0
									CHANNELS 3 Zrotation Yrotation Xrotation
									End Site
									{
										OFFSET 0.46859 -0.00000 0.46859
									}
								}
							}
						}
					}
				}
				JOINT RightShoulder
				{
					OFFSET 0 0 0
					CHANNELS 3 Zrotation Yrotation Xrotation
					JOINT RightArm
					{
						OFFSET -3.41766 0.93592 -0.10019
						CHANNELS 3 Zrotation Yrotation Xrotation
						JOINT RightForeArm
						{
							OFFSET -5.33589 -0.00000 -0.00000
							CHANNELS 3 Zrotation Yrotation Xrotation
							JOINT RightHand
							{
								OFFSET -3.64134 -0.00000 -0.00000
								CHANNELS 3 Zrotation Yrotation Xrotation
								JOINT RightFingerBase
								{
									OFFSET 0 0 0
									CHANNELS 3 Zrotation Yrotation Xrotation
									JOINT RightHandIndex1
									{
										OFFSET -0.73481 -0.00000 -0.00000
										CHANNELS 3 Zrotation Yrotation Xrotation
										End Site
										{
											OFFSET -0.59242 -0.00000 -0.00000
										}
									}
								}
								JOINT RThumb
								{
									OFFSET 0 0 0
									CHANNELS 3 Zrotation Yrotation Xrotation
									End Site
									{
										OFFSET -0.60147 -0.00000 0.60147
									}
								}
							}
						}
					}
				}
			}
		}
	}
}
MOTION
Frames: 13
Frame Time: 0.0333333
2.4002 33.7079 -5.2632 177.8100 -17.4167 -170.4960 0.0000 0.0000 0.0000 -23.4728 -2.5516 -17.1027 2.1847 9.2406 26.5510 0.1510 4.4638 -10.3412 1.0668 -6.5664 -18.4370 0.0000 0.0000 0.0000 21.8968 6.4263 -14.8481 -2.6364 -10.0818 29.2420 -0.7873 2.1932 -16.1643 -0.5327 -4.6768 12.9889 -2.9647 -2.0082 2.1289 2.0767 -2.7496 -1.4088 3.9132 -1.3140 -2.4020 -14.4925 -0.5582 -20.3592 0.9848 1.8208 35.4849 3.0119 -2.0007 15.9942 0.0000 -0.0000 0.0000 -81.8852 -17.9500 60.8158 75.5649 -59.1978 -47.5325 -0.0000 -0.0000 33.1400 32.2391 38.0828 21.2565 -7.1250 0.0000 -0.0000 -4.0056 72.7593 -2.6396 0.0000 -0.0000 0.0000 80.4613 8.3871 58.5816 -97.5594 59.7830 -66.5418 0.0000 0.0000 59.5802 38.3907 -15.5059 -11.9595 7.1250 -0.0000 -0.0000 51.2580 -38.5201 12.5620
2.3880 33.7087 -5.2605 177.8130 -16.7679 -170.5130 0.0000 0.0000 0.0000 -23.5729 -2.3683 -17.0064 2.1656 9.2028 26.4319 0.1570 4.6277 -10.6152 1.0357 -6.4728 -18.1625 0.0000 0.0000 0.0000 21.8099 6.4490 -14.8915 -2.6558 -10.1159 29.3528 -0.7736 2.3933 -15.9781 -0.4301 -4.2087 11.6646 -2.8780 -1.9941 1.7255 2.0615 -2.7189 -1.2861 3.8266 -1.3094 -2.0558 -14.5115 -0.2410 -20.2144 0.9088 2.2365 35.6863 3.0527 -1.8840 16.0170 -0.0000 -0.0000 0.0000 -82.0367 -17.7504 59.5879 74.1435 -59.0283 -46.3127 -0.0000 -0.0000 33.8140 33.3640 34.4985 20.4531 -7.1250 0.0000 -0.0000 0.7517 69.4278 0.4396 -0.0000 -0.0000 0.0000 80.5494 8.8629 59.1343 -96.9592 59.8162 -66.0232 0.0000 0.0000 59.2987 36.7656 -15.6012 -11.3618 7.1250 -0.0000 -0.0000 50.7064 -38.9683 11.3380
2.3758 33.7094 -5.2496 177.7260 -16.0941 -170.5220 0.0000 0.0000 0.0000 -23.7743 -2.1751 -16.9185 2.1523 9.1763 26.3483 0.1756 4.6321 -10.9799 0.9369 -6.1655 -17.2653 0.0000 0.0000 0.0000 21.5925 6.7611 -14.8440 -2.6493 -10.1044 29.3156 -0.7544 2.4186 -15.7671 -0.4046 -4.0836 11.3120 -2.8694 -1.8788 1.6137 2.0034 -2.5609 -1.1522 3.7491 -1.2357 -1.8716 -14.4293 -0.0311 -20.1636 0.7781 2.5092 35.8762 3.0285 -1.8131 16.0751 0.0000 -0.0000 0.0000 -82.7132 -17.2392 57.8417 73.0488 -58.8859 -45.3747 -0.0000 -0.0000 35.2525 35.7893 31.6968 20.7466 -7.1250 0.0000 -0.0000 5.7727 67.1775 3.0859 0.0000 -0.0000 0.0000 80.6307 9.3880 59.2586 -96.2135 59.8536 -65.3784 0.0000 0.0000 58.9976 34.9505 -15.5753 -10.6287 7.1250 -0.0000 -0.0000 49.9080 -39.3239 10.2649
2.3550 33.7110 -5.2354 177.9290 -15.5718 -170.6120 0.0000 0.0000 0.0000 -23.6876 -2.0390 -16.9605 2.1587 9.1890 26.3884 0.1432 5.2645 -10.9654 0.9387 -6.1713 -17.2821 0.0000 0.0000 0.0000 21.7023 6.7960 -14.8174 -2.6362 -10.0814 29.2407 -0.7380 2.6487 -15.5471 -0.4679 -4.3872 12.1685 -2.6532 -1.7847 1.8125 1.9948 -2.4372 -1.3730 3.6290 -1.1680 -2.2305 -14.4818 0.2802 -19.8277 0.8222 2.7912 36.3154 3.0980 -1.7755 16.1804 0.0000 -0.0000 0.0000 -83.4516 -16.2939 56.3345 72.1205 -58.7570 -44.5805 -0.0000 -0.0000 36.7212 38.3311 28.9999 20.9722 -7.1250 0.0000 -0.0000 10.1722 64.9539 4.9331 0.0000 -0.0000 0.0000 80.9362 9.9294 59.7872 -94.5747 59.9208 -63.9607 0.0000 0.0000 58.5484 33.4440 -15.7576 -10.1688 7.1250 -0.0000 -0.0000 49.3167 -39.7632 9.1899
2.3338 33.7096 -5.2237 177.9190 -15.2275 -170.4560 0.0000 0.0000 0.0000 -23.7703 -2.0938 -17.1325 2.1646 9.2008 26.4255 0.1627 4.9691 -11.0496 1.0496 -6.5147 -18.2853 0.0000 0.0000 0.0000 21.5618 6.7514 -14.9757 -2.6319 -10.0738 29.2161 -0.7331 3.0755 -15.4258 -0.5991 -4.9548 13.7798 -2.4735 -1.5916 1.7131 1.8875 -2.1752 -1.4719 3.4076 -1.0383 -2.3081 -14.2418 0.3915 -19.4764 0.6911 2.7570 36.5977 2.9858 -1.8236 16.2460 -0.0000 -0.0000 0.0000 -84.5909 -16.3092 55.3637 70.1008 -58.4496 -42.8565 -0.0000 -0.0000 38.2335 39.7861 25.6088 19.7957 -7.1250 0.0000 -0.0000 12.4748 61.5046 5.0559 -0.0000 -0.0000 0.0000 81.4250 8.6698 58.6053 -95.9132 59.8675 -65.1187 0.0000 0.0000 59.2069 31.4108 -14.9228 -8.9369 7.1250 -0.0000 -0.0000 47.7379 -39.4482 9.1788
2.3184 33.7058 -5.2238 177.6270 -14.5471 -170.5180 0.0000 0.0000 0.0000 -24.1950 -1.8887 -17.0199 2.1490 9.1698 26.3281 0.1465 5.2818 -11.0471 1.0838 -6.6169 -18.5851 0.0000 0.0000 0.0000 21.1293 7.3566 -14.7835 -2.6564 -10.1169 29.3562 -0.8180 2.7780 -16.3753 -0.3997 -4.0590 11.2428 -2.9703 -1.3230 1.5201 1.6449 -1.8239 -1.3726 3.4177 -0.8589 -2.1171 -13.9850 0.4983 -19.2879 0.7100 2.7078 36.9194 2.9381 -1.8507 16.3658 0.0000 -0.0000 0.0000 -85.4650 -16.4389 54.5957 68.1789 -58.1221 -41.2215 -0.0000 -0.0000 39.6980 41.1610 23.1071 18.9368 -7.1250 0.0000 -0.0000 14.2207 58.9542 4.9121 0.0000 -0.0000 0.0000 81.6692 8.6325 58.3599 -95.7781 59.8735 -65.0018 0.0000 0.0000 58.9386 29.6617 -14.8941 -8.3279 7.1250 -0.0000 -0.0000 46.7631 -39.7196 8.3758
2.2931 33.7064 -5.2019 177.6380 -14.4279 -170.5490 0.0000 0.0000 0.0000 -24.3028 -1.7716 -17.1389 2.1752 9.2219 26.4920 0.1550 5.2665 -11.1945 1.0475 -6.5084 -18.2668 0.0000 0.0000 0.0000 21.0108 7.3141 -14.8458 -2.6595 -10.1223 29.3737 -0.7972 2.8860 -16.1405 -0.4224 -4.1713 11.5591 -2.8766 -1.2427 1.4328 1.5996 -1.7083 -1.1246 3.3078 -0.8104 -1.8258 -13.7467 0.5714 -18.8561 0.5281 2.6808 36.7982 2.8062 -1.8464 16.2081 -0.0000 0.0000 0.0000 -86.3170 -16.9439 53.9895 66.7536 -57.8563 -40.0129 -0.0000 -0.0000 40.9480 43.1198 21.4744 18.9225 -7.1250 0.0000 -0.0000 16.5432 57.5280 5.1694 -0.0000 0.0000 0.0000 81.3215 9.0029 58.1293 -96.1169 59.8581 -65.2949 0.0000 0.0000 58.4233 27.9542 -14.8900 -7.7653 7.1250 -0.0000 -0.0000 45.7705 -39.9872 7.6306
2.2695 33.6967 -5.1790 177.7980 -14.2895 -170.5240 0.0000 0.0000 0.0000 -24.3037 -1.5318 -17.4780 2.1986 9.2680 26.6375 0.1718 5.2107 -11.4542 0.9970 -6.3544 -17.8161 0.0000 0.0000 0.0000 21.0349 7.5946 -14.9989 -2.6849 -10.1666 29.5179 -0.8003 2.8416 -16.1800 -0.4366 -4.2400 11.7530 -2.8992 -1.2988 1.5101 1.5813 -1.7874 -1.2356 3.3080 -0.8457 -1.9772 -13.9038 0.8317 -18.8162 0.7364 2.9635 37.2017 2.9707 -1.7848 16.3636 -0.0000 0.0000 0.0000 -86.9636 -16.6051 53.2855 66.1924 -57.7461 -39.5380 -0.0000 -0.0000 42.2334 43.6839 20.6429 18.6087 -7.1250 0.0000 -0.0000 17.1194 56.6664 4.9970 -0.0000 0.0000 0.0000 81.1317 9.0218 58.5049 -96.5331 59.8381 -65.6547 0.0000 0.0000 57.8119 26.5258 -14.9217 -7.3240 7.1250 -0.0000 -0.0000 44.9224 -40.2285 7.0157
2.2388 33.6924 -5.1591 178.1570 -14.2898 -170.5880 0.0000 0.0000 0.0000 -24.0666 -1.5562 -17.6771 2.2503 9.3691 26.9568 0.1553 5.6567 -11.5942 0.7821 -5.6461 -15.7609 0.0000 0.0000 0.0000 21.2513 7.5605 -15.0849 -2.6818 -10.1612 29.5005 -0.7918 2.9737 -16.0697 -0.4529 -4.3173 11.9712 -2.5173 -1.0908 1.6845 1.5963 -1.5052 -1.2600 3.1053 -0.7075 -2.1312 -13.4353 0.8513 -18.2288 0.4904 2.7168 37.3044 2.7277 -1.8791 16.3070 -0.0000 -0.0000 0.0000 -87.5134 -16.7088 53.9918 65.9601 -57.6996 -39.3416 -0.0000 -0.0000 42.9135 42.2952 19.2009 16.6577 -7.1250 0.0000 -0.0000 15.2291 54.5403 3.6330 -0.0000 -0.0000 0.0000 80.7981 8.9099 57.8433 -97.3204 59.7965 -66.3353 0.0000 0.0000 57.3414 25.1720 -14.8140 -6.8519 7.1250 -0.0000 -0.0000 44.0090 -40.3373 6.6160
2.1989 33.6935 -5.1373 178.1640 -14.2062 -170.5190 0.0000 0.0000 0.0000 -24.2838 -1.5841 -17.8644 2.2774 9.4215 27.1229 0.1478 5.9037 -11.7120 0.8700 -5.9470 -16.6307 0.0000 0.0000 0.0000 21.0348 7.3184 -15.3312 -2.6841 -10.1653 29.5137 -0.7687 3.1617 -15.7968 -0.3879 -3.9995 11.0754 -2.6657 -1.2206 1.5510 1.5462 -1.6786 -1.2106 3.1380 -0.7948 -1.9903 -13.6784 1.0940 -18.4169 0.7301 3.0699 37.6482 2.9380 -1.7829 16.4820 0.0000 0.0000 0.0000 -87.9547 -16.8663 53.6426 65.6474 -57.6361 -39.0774 -0.0000 -0.0000 43.7444 42.1549 19.6359 16.9210 -7.1250 0.0000 -0.0000 15.1182 55.0374 3.7904 0.0000 0.0000 0.0000 80.2979 9.2697 58.3623 -97.6077 59.7802 -66.5836 0.0000 0.0000 56.3949 23.5716 -14.9380 -6.4169 7.1250 -0.0000 -0.0000 43.0389 -40.6612 5.9207
2.1675 33.6891 -5.1140 178.2570 -14.0507 -170.4800 0.0000 0.0000 0.0000 -24.3557 -1.6285 -17.8758 2.2706 9.4083 27.0810 0.1584 5.9825 -11.9871 0.6964 -5.3346 -14.8654 0.0000 0.0000 0.0000 20.9561 7.5571 -15.5032 -2.7152 -10.2191 29.6890 -0.7701 3.2598 -15.7976 -0.4261 -4.1895 11.6105 -2.7939 -1.0413 1.6036 1.4420 -1.4425 -1.1257 3.0957 -0.6763 -1.9494 -13.3039 1.1274 -18.0011 0.6672 2.8824 37.6851 2.8069 -1.8224 16.4187 -0.0000 0.0000 0.0000 -87.9782 -17.1328 54.3560 65.2793 -57.5600 -38.7666 -0.0000 -0.0000 44.1733 42.5998 19.0945 16.7416 -7.1250 0.0000 -0.0000 15.5720 54.4853 3.6967 -0.0000 0.0000 0.0000 80.1456 9.1483 57.7098 -98.9330 59.6963 -67.7283 0.0000 0.0000 56.0004 22.3651 -14.6613 -5.9455 7.1250 -0.0000 -0.0000 42.0786 -40.5980 5.7974
2.1271 33.6815 -5.0962 178.5000 -13.8982 -170.3220 0.0000 0.0000 0.0000 -24.3625 -1.3337 -18.3519 2.2830 9.4322 27.1569 0.1460 6.0882 -11.8743 0.8352 -5.8299 -16.2917 0.0000 0.0000 0.0000 20.9887 7.9153 -15.7920 -2.7448 -10.2701 29.8559 -0.7635 3.2239 -15.7325 -0.4453 -4.2814 11.8698 -2.7882 -0.9215 1.4330 1.4795 -1.2785 -1.1134 3.1228 -0.5965 -1.8524 -13.0689 1.2129 -17.7131 0.5636 2.8512 37.8221 2.7090 -1.8409 16.4254 0.0000 0.0000 0.0000 -88.2766 -17.5922 54.8669 64.9066 -57.4816 -38.4522 -0.0000 -0.0000 44.5312 42.8927 19.0556 16.8731 -7.1250 0.0000 -0.0000 15.9102 54.5106 3.7900 0.0000 0.0000 0.0000 79.3949 9.1501 57.4307 -99.4399 59.6606 -68.1659 0.0000 0.0000 55.0627 20.4889 -14.6403 -5.3952 7.1250 -0.0000 -0.0000 40.7791 -40.8244 5.2308
2.0838 33.6744 -5.0769 178.6710 -13.7397 -170.2850 0.0000 0.0000 0.0000 -24.4401 -1.1122 -18.6441 2.2915 9.4485 27.2085 0.1397 6.2040 -11.8832 1.0342 -6.4684 -18.1497 0.0000 0.0000 0.0000 20.9573 8.1708 -15.8946 -2.7693 -10.3119 29.9927 -0.7648 3.2315 -15.7447 -0.4508 -4.3074 11.9431 -2.9141 -0.8662 1.4561 1.4373 -1.2069 -1.0443 3.1477 -0.5606 -1.7981 -12.8698 1.3516 -17.4969 0.5822 2.8978 37.9347 2.6872 -1.8089 16.4230 0.0000 0.0000 0.0000 -88.2235 -18.0336 55.2348 65.0840 -57.5191 -38.6018 -0.0000 -0.0000 44.7324 41.8671 17.6181 15.1767 -7.1250 0.0000 -0.0000 14.5427 52.4907 2.7279 0.0000 0.0000 0.0000 78.9736 9.2589 57.4034 -100.6190 59.5696 -69.1830 0.0000 0.0000 54.3348 19.2768 -14.6295 -5.0480 7.1250 -0.0000 -0.0000 39.9199 -40.9679 4.8875
